<svg width="222" height="255" viewBox="0 0 222 255" fill="none" xmlns="http://www.w3.org/2000/svg">
<path d="M75.9514 59.4425C76.1319 59.4656 76.6687 60.4034 76.9093 60.0847C76.0301 55.9964 73.5125 52.3147 72.5962 48.0462C67.9916 26.5794 81.5233 4.93241 103.209 0.751758C131.355 -4.67616 155.369 20.1306 149.293 48.037C148.363 52.3147 145.933 55.9086 144.993 60.0847C154.069 59.5627 164.972 58.6018 174.028 59.6227C180.391 60.3387 184.936 62.9765 188.291 68.4644C201.059 124.356 210.796 181.13 222 237.441C221.713 247.558 213.883 255.009 203.776 255H17.4884C7.19622 254.122 0.0323946 247.47 0 236.905L31.7513 73.6614C32.4501 68.5106 37.5407 62.205 42.5156 60.6852C43.6494 60.3387 48.0689 59.4425 48.976 59.4425C56.8293 59.4425 68.658 58.4447 75.9468 59.4425H75.9514ZM107.587 18.583C95.5177 20.2137 87.868 32.7372 90.566 44.2167C94.805 62.2558 120.017 65.6373 129.041 49.6122C137.746 34.16 125.2 16.1948 107.587 18.5784V18.583ZM161.686 128.038C136.289 119.727 108.489 131.271 110.285 161.076C111.97 189.024 143.235 195.219 164.254 183.49V153.038H138.565V163.936H150.769V176.117C139.426 179.984 126.654 175.064 125.149 162.263C122.299 137.997 142.559 132.338 161.686 140.857V128.038ZM71.1339 126.753H57.6485V187.652H71.1339V158.161L90.3994 187.652H107.74L85.3504 155.81L106.453 126.753H90.0754L71.1292 154.96V126.753H71.1339Z" fill="white"/>
</svg>
