<svg width="56" height="64" viewBox="0 0 56 64" fill="none" xmlns="http://www.w3.org/2000/svg">
<path d="M19.1589 14.9189C19.2044 14.9247 19.3399 15.1601 19.4006 15.0801C19.1788 14.054 18.5437 13.13 18.3126 12.0587C17.151 6.67091 20.5644 1.23794 26.0347 0.188676C33.1347 -1.17362 39.1922 5.05238 37.6594 12.0563C37.4248 13.13 36.8119 14.032 36.5749 15.0801C38.8641 14.9491 41.6145 14.7079 43.899 14.9641C45.5042 15.1438 46.6505 15.8059 47.4969 17.1832C50.7176 31.2109 53.1738 45.46 56 59.5931C55.9276 62.1322 53.9524 64.0023 51.4029 64H4.4115C1.81526 63.7797 0.0081716 62.1102 0 59.4586L8.00934 18.4876C8.18561 17.1948 9.46972 15.6122 10.7246 15.2308C11.0107 15.1438 12.1255 14.9189 12.3543 14.9189C14.3353 14.9189 17.3191 14.6685 19.1577 14.9189H19.1589ZM27.1391 4.66398C24.0946 5.07325 22.1649 8.2164 22.8455 11.0975C23.9148 15.625 30.2746 16.4737 32.551 12.4517C34.7468 8.57349 31.5821 4.06457 27.1391 4.66282V4.66398ZM40.7856 32.1349C34.3791 30.0491 27.3667 32.9465 27.8196 40.427C28.2446 47.4414 36.1313 48.9961 41.4335 46.0524V38.4096H34.9535V41.1447H38.0318V44.202C35.1706 45.1724 31.9486 43.9377 31.5692 40.7249C30.8501 34.6346 35.9609 33.2143 40.7856 35.3523V32.1349ZM17.9437 31.8126H14.542V47.097H17.9437V39.6954L22.8034 47.097H27.1776L21.5298 39.1053L26.8531 31.8126H22.7217L17.9425 38.8919V31.8126H17.9437Z" fill="white"/>
</svg>
